{"title":"A Good Day To Die Hard 2013 HC SUBBED WEB-DL XViD AC3-UNiQUE","uid":8473750,"size":1426976768,"categoryP":"video","categoryS":"movies","magnet":"?xt=urn:btih:d26fb0f2939c688613715b8d4947385d4d1a2f57&amp;dn=A+Good+Day+To+Die+Hard+2013+HC+SUBBED+WEB-DL+XViD+AC3-UNiQUE&amp;tr=udp%3A%2F%2Ftracker.openbittorrent.com%3A80&amp;tr=udp%3A%2F%2Fopen.demonii.com%3A1337&amp;tr=udp%3A%2F%2Ftracker.coppersurfer.tk%3A6969&amp;tr=udp%3A%2F%2Fexodus.desync.com%3A6969","seeders":0,"leechers":0,"uploader":".BONE.","files":-1,"time":1368559304,"description":"Format                                   : AVI\nFormat/Info                              : Audio Video Interleave\nFile size                                : 1.29 GiB\nDuration                                 : 1h 38mn\nOverall bit rate                         : 1 887 Kbps\nWriting application                      : VirtualDubMod 1.5.10.2 (build 2540/release)\nWriting library                          : VirtualDubMod build 2540/release\n\nVideo\nID                                       : 0\nFormat                                   : MPEG-4 Visual\nFormat profile                           : Advanced Simple@L5\nFormat settings, BVOP                    : 2\nFormat settings, QPel                    : No\nFormat settings, GMC                     : No warppoints\nFormat settings, Matrix                  : Default (H.263)\nMuxing mode                              : Packed bitstream\nCodec ID                                 : XVID\nCodec ID/Hint                            : XviD\nDuration                                 : 1h 38mn\nBit rate                                 : 1 496 Kbps\nWidth                                    : 720 pixels\nHeight                                   : 384 pixels\nDisplay aspect ratio                     : 1.85:1\nFrame rate                               : 23.976 fps\nColor space                              : YUV\nChroma subsampling                       : 4:2:0\nBit depth                                : 8 bits\nScan type                                : Progressive\nCompression mode                         : Lossy\nBits/(Pixel*Frame)                       : 0.226\nStream size                              : 1.03 GiB (79%)\nWriting library                          : XviD 64\n\nAudio\nID                                       : 1\nFormat                                   : AC-3\nFormat/Info                              : Audio Coding 3\nMode extension                           : CM (complete main)\nFormat settings, Endianness              : Big\nCodec ID                                 : 2000\nDuration                                 : 1h 37mn\nBit rate mode                            : Constant\nBit rate                                 : 384 Kbps\nChannel(s)                               : 6 channels\nChannel positions                        : Front: L C R, Side: L R, LFE\nSampling rate                            : 48.0 KHz\nBit depth                                : 16 bits\nCompression mode                         : Lossy\nStream size                              : 268 MiB (20%)\nAlignment                                : Split accross interleaves\nInterleave, duration                     : 42 ms (1.01 video frame)\nInterleave, preload duration             : 500 ms\n\n\nSource Used\n\n\nA Good Day To Die Hard 2013 720p WEB-DL X264-WEBiOS/Thanks\n\n\n\nHardcoded english subs for foreign parts only \n\n &lt;a href=&quot;\nhttp://imgbox.com/g/qOWfHCEtMN&quot; rel=&quot;nofollow&quot; target=&quot;_NEW&quot;&gt;\nhttp://imgbox.com/g/qOWfHCEtMN&lt;/a&gt;","torrent":{"xt":"urn:btih:d26fb0f2939c688613715b8d4947385d4d1a2f57","amp;dn":"A+Good+Day+To+Die+Hard+2013+HC+SUBBED+WEB-DL+XViD+AC3-UNiQUE","amp;tr":["udp%3A%2F%2Ftracker.openbittorrent.com%3A80","udp%3A%2F%2Fopen.demonii.com%3A1337","udp%3A%2F%2Ftracker.coppersurfer.tk%3A6969","udp%3A%2F%2Fexodus.desync.com%3A6969"],"infoHash":"d26fb0f2939c688613715b8d4947385d4d1a2f57","infoHashBuffer":{"type":"Buffer","data":[210,111,176,242,147,156,104,134,19,113,91,141,73,71,56,93,77,26,47,87]},"announce":[],"urlList":[]}}